# Blender v2.79 (sub 0) OBJ File: ''
# www.blender.org
mtllib tablechairobj2.mtl
o Cube.006
v 1.768728 0.969783 -3.406590
v 1.768728 2.969783 -3.406590
v 1.768728 0.969783 -3.238800
v 1.768728 2.969783 -3.238800
v -0.896212 0.969783 -3.406590
v -0.896212 2.969783 -3.406590
v -0.896212 0.969783 -3.238800
v -0.896212 2.969783 -3.238800
vn 1.0000 0.0000 0.0000
vn 0.0000 0.0000 1.0000
vn -1.0000 0.0000 0.0000
vn 0.0000 0.0000 -1.0000
vn 0.0000 -1.0000 0.0000
vn 0.0000 1.0000 0.0000
usemtl None
s off
f 1//1 2//1 4//1 3//1
f 3//2 4//2 8//2 7//2
f 7//3 8//3 6//3 5//3
f 5//4 6//4 2//4 1//4
f 3//5 7//5 5//5 1//5
f 8//6 4//6 2//6 6//6
o Cube.005
v -0.890941 0.713452 -0.366570
v -0.890941 0.959123 -0.366570
v -0.890941 0.713452 -3.370143
v -0.890941 0.959123 -3.370143
v 1.750103 0.713452 -0.366570
v 1.750103 0.959123 -0.366570
v 1.750103 0.713452 -3.370143
v 1.750103 0.959123 -3.370143
vn -1.0000 0.0000 0.0000
vn 0.0000 0.0000 -1.0000
vn 1.0000 0.0000 0.0000
vn 0.0000 0.0000 1.0000
vn 0.0000 -1.0000 0.0000
vn 0.0000 1.0000 0.0000
usemtl None
s off
f 9//7 10//7 12//7 11//7
f 11//8 12//8 16//8 15//8
f 15//9 16//9 14//9 13//9
f 13//10 14//10 10//10 9//10
f 11//11 15//11 13//11 9//11
f 16//12 12//12 10//12 14//12
o Cube.001
v 4.124998 2.126712 1.582095
v 4.124998 2.232970 1.582095
v 4.124998 2.126712 -1.084068
v 4.124998 2.232970 -1.084068
v -2.901048 2.126712 1.582095
v -2.901048 2.232970 1.582095
v -2.901048 2.126712 -1.084068
v -2.901048 2.232970 -1.084068
vn 1.0000 0.0000 0.0000
vn 0.0000 0.0000 -1.0000
vn -1.0000 0.0000 0.0000
vn 0.0000 0.0000 1.0000
vn 0.0000 -1.0000 0.0000
vn 0.0000 1.0000 0.0000
usemtl None
s off
f 17//13 19//13 20//13 18//13
f 19//14 23//14 24//14 20//14
f 23//15 21//15 22//15 24//15
f 21//16 17//16 18//16 22//16
f 19//17 17//17 21//17 23//17
f 24//18 22//18 18//18 20//18
o Cube
v -2.518624 -0.870014 -0.838736
v -2.518624 -0.870014 -0.472157
v -2.277060 -0.870014 -0.472157
v -2.277060 -0.870014 -0.838736
v -2.518624 2.152619 -0.838736
v -2.518624 2.152619 -0.472157
v -2.277060 2.152619 -0.472157
v -2.277060 2.152619 -0.838736
vn 0.0000 -1.0000 0.0000
vn 0.0000 1.0000 0.0000
vn -1.0000 0.0000 0.0000
vn 0.0000 -0.0000 1.0000
vn 1.0000 0.0000 0.0000
vn 0.0000 0.0000 -1.0000
usemtl Material
s off
f 25//19 28//19 27//19 26//19
f 29//20 30//20 31//20 32//20
f 25//21 26//21 30//21 29//21
f 26//22 27//22 31//22 30//22
f 27//23 28//23 32//23 31//23
f 29//24 32//24 28//24 25//24
o Cube.002
v 3.599916 -0.851905 1.112928
v 3.599916 -0.851905 1.479507
v 3.841480 -0.851905 1.479507
v 3.841480 -0.851905 1.112928
v 3.599916 2.170729 1.112928
v 3.599916 2.170729 1.479508
v 3.841480 2.170729 1.479507
v 3.841480 2.170729 1.112928
vn 0.0000 -1.0000 0.0000
vn 0.0000 1.0000 0.0000
vn -1.0000 0.0000 0.0000
vn 0.0000 -0.0000 1.0000
vn 1.0000 0.0000 0.0000
vn 0.0000 0.0000 -1.0000
usemtl Material.001
s off
f 33//25 36//25 35//25 34//25
f 37//26 38//26 39//26 40//26
f 33//27 34//27 38//27 37//27
f 34//28 35//28 39//28 38//28
f 35//29 36//29 40//29 39//29
f 37//30 40//30 36//30 33//30
o Cube.003
v -2.720287 -0.876177 1.011191
v -2.720287 -0.876177 1.377770
v -2.478723 -0.876177 1.377770
v -2.478723 -0.876177 1.011191
v -2.720287 2.146457 1.011191
v -2.720287 2.146457 1.377770
v -2.478723 2.146457 1.377770
v -2.478723 2.146457 1.011191
vn 0.0000 -1.0000 0.0000
vn 0.0000 1.0000 0.0000
vn -1.0000 0.0000 0.0000
vn 0.0000 -0.0000 1.0000
vn 1.0000 0.0000 0.0000
vn -0.0000 0.0000 -1.0000
usemtl Material.002
s off
f 41//31 44//31 43//31 42//31
f 45//32 46//32 47//32 48//32
f 41//33 42//33 46//33 45//33
f 42//34 43//34 47//34 46//34
f 43//35 44//35 48//35 47//35
f 45//36 48//36 44//36 41//36
o Cube.004
v 3.461406 -0.912159 -0.928153
v 3.461406 -0.912159 -0.561574
v 3.702970 -0.912159 -0.561574
v 3.702970 -0.912159 -0.928153
v 3.461406 2.110475 -0.928153
v 3.461406 2.110475 -0.561574
v 3.702970 2.110475 -0.561574
v 3.702970 2.110475 -0.928153
vn 0.0000 -1.0000 0.0000
vn 0.0000 1.0000 0.0000
vn -1.0000 0.0000 0.0000
vn 0.0000 -0.0000 1.0000
vn 1.0000 -0.0000 0.0000
vn -0.0000 0.0000 -1.0000
usemtl Material.003
s off
f 49//37 52//37 51//37 50//37
f 53//38 54//38 55//38 56//38
f 49//39 50//39 54//39 53//39
f 50//40 51//40 55//40 54//40
f 51//41 52//41 56//41 55//41
f 53//42 56//42 52//42 49//42
o Cube.007
v -0.900668 -1.271228 -0.444445
v -0.900668 0.728772 -0.444445
v -0.900668 -1.271228 -0.853380
v -0.900668 0.728772 -0.853380
v -0.624180 -1.271228 -0.444445
v -0.624180 0.728772 -0.444445
v -0.624180 -1.271228 -0.853380
v -0.624180 0.728772 -0.853380
vn -1.0000 0.0000 0.0000
vn 0.0000 0.0000 -1.0000
vn 1.0000 0.0000 0.0000
vn 0.0000 0.0000 1.0000
vn 0.0000 -1.0000 0.0000
vn 0.0000 1.0000 0.0000
usemtl None
s off
f 57//43 58//43 60//43 59//43
f 59//44 60//44 64//44 63//44
f 63//45 64//45 62//45 61//45
f 61//46 62//46 58//46 57//46
f 59//47 63//47 61//47 57//47
f 64//48 60//48 58//48 62//48
o Cube.008
v 1.445997 -1.281342 -0.390900
v 1.445997 0.718659 -0.390900
v 1.445997 -1.281342 -0.799835
v 1.445997 0.718659 -0.799835
v 1.722485 -1.281342 -0.390900
v 1.722485 0.718659 -0.390900
v 1.722485 -1.281342 -0.799835
v 1.722485 0.718659 -0.799835
vn -1.0000 0.0000 0.0000
vn 0.0000 0.0000 -1.0000
vn 1.0000 0.0000 0.0000
vn 0.0000 0.0000 1.0000
vn 0.0000 -1.0000 0.0000
vn 0.0000 1.0000 0.0000
usemtl None
s off
f 65//49 66//49 68//49 67//49
f 67//50 68//50 72//50 71//50
f 71//51 72//51 70//51 69//51
f 69//52 70//52 66//52 65//52
f 67//53 71//53 69//53 65//53
f 72//54 68//54 66//54 70//54
o Cube.009
v 1.452511 -1.280330 -2.977382
v 1.452511 0.719670 -2.977382
v 1.452511 -1.280330 -3.386317
v 1.452511 0.719670 -3.386317
v 1.728999 -1.280330 -2.977382
v 1.728999 0.719670 -2.977382
v 1.728999 -1.280330 -3.386317
v 1.728999 0.719670 -3.386317
vn -1.0000 0.0000 0.0000
vn 0.0000 0.0000 -1.0000
vn 1.0000 0.0000 0.0000
vn 0.0000 0.0000 1.0000
vn 0.0000 -1.0000 0.0000
vn 0.0000 1.0000 0.0000
usemtl None
s off
f 73//55 74//55 76//55 75//55
f 75//56 76//56 80//56 79//56
f 79//57 80//57 78//57 77//57
f 77//58 78//58 74//58 73//58
f 75//59 79//59 77//59 73//59
f 80//60 76//60 74//60 78//60
o Cube.010
v -0.866453 -1.207563 -2.976763
v -0.866453 0.792437 -2.976763
v -0.866453 -1.207563 -3.385699
v -0.866453 0.792437 -3.385699
v -0.589964 -1.207563 -2.976763
v -0.589964 0.792437 -2.976763
v -0.589964 -1.207563 -3.385699
v -0.589964 0.792437 -3.385699
vn -1.0000 0.0000 0.0000
vn 0.0000 0.0000 -1.0000
vn 1.0000 0.0000 0.0000
vn 0.0000 0.0000 1.0000
vn 0.0000 -1.0000 0.0000
vn 0.0000 1.0000 0.0000
usemtl None
s off
f 81//61 82//61 84//61 83//61
f 83//62 84//62 88//62 87//62
f 87//63 88//63 86//63 85//63
f 85//64 86//64 82//64 81//64
f 83//65 87//65 85//65 81//65
f 88//66 84//66 82//66 86//66
